Coordinates
version=1
nRows=25
nColumns=34
inDegrees=yes
inDegrees=no

Units are S.I. units (second, meters, Newtons, ...)
If the header above contains a line with 'inDegrees', this indicates whether rotational values are in degrees (yes) or radians (no).

endheader
time	pelvis_tilt	pelvis_list	pelvis_rotation	pelvis_tx	pelvis_ty	pelvis_tz	hip_flexion_r	hip_adduction_r	hip_rotation_r	knee_angle_r	ankle_angle_r	subtalar_angle_r	mtp_angle_r	hip_flexion_l	hip_adduction_l	hip_rotation_l	knee_angle_l	ankle_angle_l	subtalar_angle_l	mtp_angle_l	lumbar_extension	lumbar_bending	lumbar_rotation	arm_flex_r	arm_add_r	arm_rot_r	elbow_flex_r	pro_sup_r	arm_flex_l	arm_add_l	arm_rot_l	elbow_flex_l	pro_sup_l
0.000000 0.017340 0.413484 0.295048 -0.009776 0.008231 0.000578 1.680984 -0.095862 0.148936 0.911944 -0.257539 -0.503906 0.000000 1.637925 0.096124 -0.334683 1.270638 0.872665 0.610865 0.000000 -0.909768 -0.207284 0.197037 1.768534 -0.649869 0.680709 0.532927 1.363016 2.533142 0.266830 0.848989 0.927831 1.071617
0.016667 0.012071 0.343446 0.136587 -0.009792 0.008122 0.000896 1.668262 0.050956 0.179283 0.922707 -0.235430 -0.344822 0.000000 1.620475 -0.062454 -0.317855 1.188465 0.872665 0.231743 0.000000 -0.896793 -0.216467 0.372293 1.842548 -0.658734 0.687403 0.517395 1.367657 2.564453 0.134234 0.852908 0.999222 1.075237
0.033333 -0.008481 0.270372 0.110552 -0.009764 0.007928 0.000893 1.697931 0.053570 0.081443 0.927259 -0.153568 -0.292812 0.000000 1.677934 -0.086286 -0.203965 1.188528 0.872665 -0.113404 0.000000 -0.857255 -0.149543 0.452028 1.809390 -0.663457 0.686757 0.520269 1.344629 2.489246 0.128301 0.804431 0.994713 1.065413
0.050000 -0.028487 0.224909 0.102293 -0.009896 0.007865 0.000940 1.719352 0.068564 0.047910 0.943609 -0.138173 -0.341119 0.000000 1.722146 -0.091623 -0.143980 1.186468 0.872665 -0.218472 0.000000 -0.847909 -0.104143 0.455263 1.766968 -0.624231 0.677382 0.527673 1.325586 2.475479 0.127525 0.820306 0.944392 1.063967
0.066667 -0.021189 0.193578 0.103687 -0.009741 0.007794 0.000905 1.714993 0.078740 0.015787 0.925570 -0.136672 -0.337813 0.000000 1.743386 -0.074417 -0.105220 1.196432 0.872665 -0.291403 0.000000 -0.863926 -0.058251 0.407565 1.655542 -0.555224 0.568896 0.585608 1.283304 2.470164 0.111934 0.859466 0.906249 1.056682
0.083333 -0.031585 0.170128 0.095050 -0.009667 0.007833 0.000792 1.732207 0.091344 0.000106 0.935532 -0.143875 -0.352086 0.000000 1.768787 -0.073175 -0.073333 1.211246 0.872665 -0.106223 0.000000 -0.858446 -0.025278 0.382426 1.542109 -0.511566 0.489096 0.643296 1.283293 2.419285 0.110531 0.855274 0.900933 1.047624
0.100000 -0.031623 0.161070 0.080707 -0.009785 0.007893 0.000851 1.728605 0.107387 -0.001868 0.928069 -0.155945 -0.345817 0.000000 1.771379 -0.078569 -0.067273 1.220041 0.872665 0.002310 0.000000 -0.874913 -0.012254 0.350183 1.452184 -0.464138 0.371915 0.691981 1.314575 2.398334 0.106283 0.856141 0.892864 1.039273
0.116667 -0.051173 0.161944 0.066454 -0.009487 0.008043 0.000686 1.744494 0.113101 -0.003051 0.945051 -0.157069 -0.344022 0.000000 1.786068 -0.082629 -0.055773 1.234293 0.872665 0.056082 0.000000 -0.864294 -0.003369 0.331922 1.335697 -0.457117 0.273879 0.766617 1.350484 2.328702 0.109496 0.807372 0.931873 1.035862
0.133333 -0.080642 0.164788 0.062753 -0.009138 0.008067 0.000580 1.772622 0.104746 -0.013451 0.966093 -0.127831 -0.317253 0.000000 1.811825 -0.081111 -0.053938 1.261401 0.872665 0.051982 0.000000 -0.839520 0.004163 0.312376 1.200486 -0.447616 0.158516 0.863688 1.391292 2.268894 0.126535 0.759941 0.963182 1.042477
0.150000 -0.094307 0.172702 0.058981 -0.009216 0.007958 0.000594 1.790446 0.095758 -0.025941 0.974988 -0.095342 -0.267450 0.000000 1.825058 -0.078923 -0.060540 1.267393 0.872665 -0.039730 0.000000 -0.831932 0.005376 0.276671 1.124328 -0.420561 0.104385 0.925499 1.426881 2.247390 0.130673 0.747156 0.955255 1.050011
0.166667 -0.104300 0.179262 0.058777 -0.009117 0.007877 0.000532 1.811977 0.083781 -0.040120 0.989637 -0.069630 -0.220557 0.000000 1.840648 -0.074788 -0.065223 1.277057 0.872665 -0.145106 0.000000 -0.820684 0.008608 0.245803 1.043550 -0.400987 0.057946 0.991642 1.490645 2.226467 0.139582 0.724623 0.938958 1.057657
0.183333 -0.110817 0.178909 0.054776 -0.008952 0.007906 0.000585 1.826667 0.074819 -0.063178 1.007502 -0.041805 -0.170498 0.000000 1.853266 -0.081268 -0.067545 1.284475 0.872665 -0.410762 0.000000 -0.814497 0.013303 0.222300 0.980524 -0.377528 0.038910 1.037777 1.519739 2.208314 0.139243 0.720923 0.920642 1.058572
0.200000 -0.109962 0.181592 0.047183 -0.009064 0.007859 0.000650 1.831710 0.070780 -0.084298 1.013293 -0.024907 -0.129032 0.000000 1.858689 -0.093566 -0.072154 1.291281 0.872665 -0.479931 0.000000 -0.820715 0.012676 0.187693 0.959474 -0.339124 0.047662 1.049735 1.536848 2.218237 0.133701 0.734914 0.853377 1.057218
0.216667 -0.103721 0.182997 0.032637 -0.009002 0.007917 0.000688 1.824610 0.074248 -0.103357 1.014889 -0.029356 -0.106341 0.000000 1.858095 -0.114079 -0.072146 1.301149 0.872665 -0.541984 0.000000 -0.837227 0.006465 0.155960 0.937677 -0.302711 0.047264 1.066514 1.564148 2.236362 0.126019 0.768163 0.794380 1.053689
0.233333 -0.090173 0.181743 0.018841 -0.009151 0.007793 0.000744 1.816748 0.077161 -0.124319 1.010440 -0.034904 -0.087109 0.000000 1.852495 -0.130554 -0.069134 1.308357 0.872665 -0.428250 0.000000 -0.855308 0.006416 0.113157 0.936876 -0.254713 0.071402 1.066312 1.589882 2.254954 0.106450 0.800961 0.740423 1.048292
0.250000 -0.071034 0.176479 0.006935 -0.009063 0.007847 0.000779 1.799795 0.078377 -0.143838 1.014829 -0.040559 -0.074281 0.000000 1.841260 -0.142960 -0.066778 1.312676 0.872665 -0.414345 0.000000 -0.879374 0.009328 0.073650 0.910517 -0.211786 0.074060 1.076499 1.625237 2.266582 0.086266 0.854953 0.699970 1.039478
0.266667 -0.052099 0.163696 -0.001353 -0.009276 0.007966 0.000860 1.767925 0.085786 -0.156388 0.995666 -0.054325 -0.077555 0.000000 1.816679 -0.148758 -0.061268 1.306707 0.872665 -0.322351 0.000000 -0.909827 0.020640 0.037656 0.891302 -0.171029 0.085803 1.082595 1.657627 2.268884 0.065361 0.880833 0.673119 1.025792
0.283333 -0.031378 0.145986 -0.013107 -0.009232 0.008162 0.000876 1.725579 0.092863 -0.177476 0.968937 -0.059445 -0.088202 0.000000 1.787829 -0.152376 -0.040413 1.291706 0.872665 -0.350815 0.000000 -0.946619 0.033925 0.006850 0.862364 -0.137913 0.087649 1.093525 1.668528 2.261383 0.043166 0.886293 0.665731 1.020551
0.300000 -0.015077 0.135055 -0.038324 -0.009450 0.008202 0.000980 1.687224 0.120305 -0.192911 0.929768 -0.082364 -0.094594 0.000000 1.758908 -0.169958 -0.025241 1.283216 0.872665 -0.268806 0.000000 -0.979309 0.029086 -0.033279 0.849548 -0.096572 0.105855 1.079531 1.739427 2.257618 0.002212 0.929144 0.665405 0.984298
0.316667 0.002062 0.124640 -0.060216 -0.009371 0.008233 0.000986 1.654741 0.138389 -0.211490 0.904647 -0.085590 -0.097835 0.000000 1.738626 -0.182928 -0.008505 1.270261 0.872665 -0.234727 0.000000 -1.000193 0.023539 -0.059329 0.791418 -0.079850 0.106564 1.109330 1.758874 2.219995 -0.017055 0.904393 0.679237 0.962882
0.333333 0.017052 0.117583 -0.077304 -0.009530 0.008197 0.001064 1.632139 0.155717 -0.226524 0.883390 -0.093462 -0.110482 0.000000 1.726273 -0.188811 0.007318 1.268250 0.872665 -0.176333 0.000000 -1.019824 0.016398 -0.095498 0.728443 -0.062398 0.116768 1.147033 1.766154 2.198990 -0.041130 0.892739 0.690226 0.954816
0.350000 0.024091 0.109561 -0.093472 -0.009580 0.007947 0.001103 1.631849 0.171232 -0.242786 0.874406 -0.097308 -0.116104 0.000000 1.730303 -0.195973 0.025208 1.266325 0.872665 -0.115265 0.000000 -1.015902 0.009581 -0.128740 0.652495 -0.052934 0.131460 1.193117 1.773911 2.163983 -0.064367 0.878807 0.710190 0.943966
0.366667 0.032466 0.100986 -0.111518 -0.009605 0.007970 0.001086 1.625367 0.184930 -0.254996 0.859217 -0.112207 -0.120369 0.000000 1.737466 -0.203952 0.041040 1.275507 0.872665 -0.057840 0.000000 -1.012502 0.000381 -0.150949 0.572732 -0.054629 0.130309 1.235578 1.779754 2.117687 -0.078549 0.859485 0.737273 0.932692
0.383333 0.034392 0.087051 -0.120800 -0.009057 0.007936 0.001117 1.637310 0.194845 -0.281372 0.884233 -0.093920 -0.101838 0.000000 1.758814 -0.209432 0.070097 1.308847 0.872665 0.003095 0.000000 -0.982491 0.004067 -0.141428 0.437582 -0.069143 0.084280 1.277178 1.788615 1.991670 -0.069704 0.774350 0.810581 0.911886
0.400000 0.034744 0.075865 -0.119050 -0.009044 0.008309 0.001181 1.616161 0.196952 -0.284236 0.878218 -0.089712 -0.106872 0.000000 1.753024 -0.209937 0.079639 1.313858 0.872665 0.004111 0.000000 -0.961953 0.014545 -0.143661 0.344831 -0.073375 0.048721 1.248747 1.794531 1.871276 -0.060028 0.716174 0.849705 0.908333
